<?xml version="1.0" encoding="UTF-8" standalone="no" ?>
<!DOCTYPE svg PUBLIC "-//W3C//DTD SVG 1.1//EN" "http://www.w3.org/Graphics/SVG/1.1/DTD/svg11.dtd">
<svg xmlns="http://www.w3.org/2000/svg" xmlns:xlink="http://www.w3.org/1999/xlink" version="1.1" width="500" height="500" viewBox="0 0 500 500" xml:space="preserve">
<desc>Created with Fabric.js 5.3.0</desc>
<defs>
</defs>
<g transform="matrix(1.3015181636 0 0 1.3015181636 119.1444791695 88.7797136486)" id="vCQ9c0CJcL537OsYvKA8I"  >
<path style="stroke: rgb(0,0,0); stroke-width: 1; stroke-dasharray: none; stroke-linecap: butt; stroke-dashoffset: 0; stroke-linejoin: miter; stroke-miterlimit: 4; fill: rgb(255,255,255); fill-opacity: 0; fill-rule: nonzero; opacity: 1;"  transform=" translate(0, 0)" d="M 0 0" stroke-linecap="round" />
</g>
<g transform="matrix(2.8798566685 0 0 3.1224398524 243.8732836296 256.3444109747)" id="3xqBob44UZRWU1y5jxiIM"  >
<path style="stroke: rgb(0,0,0); stroke-width: 1; stroke-dasharray: none; stroke-linecap: butt; stroke-dashoffset: 0; stroke-linejoin: miter; stroke-miterlimit: 4; fill: rgb(255,255,255); fill-opacity: 0; fill-rule: nonzero; opacity: 0.9;"  transform=" translate(0, 0)" d="M -54.11499 -66.7982 L -54.11499 66.79819000000002 L 54.115 66.79819000000002 L 54.115 -66.7982 z" stroke-linecap="round" />
</g>
<g transform="matrix(2.8798566685 0 0 2.8798566685 243.8732836296 283.2217204062)" id="nl0wiEkFU9qxBjsR6QZRi"  >
<path style="stroke: rgb(0,0,0); stroke-width: 1; stroke-dasharray: none; stroke-linecap: butt; stroke-dashoffset: 0; stroke-linejoin: miter; stroke-miterlimit: 4; fill: rgb(255,255,255); fill-opacity: 0; fill-rule: nonzero; opacity: 0.9;"  transform=" translate(0, 0)" d="M -38.33145 63.13416 L -38.33145 -63.13416 L 38.33146 -63.13416 L 38.33146 63.13416" stroke-linecap="round" />
</g>
<g transform="matrix(2.8798566685 0 0 2.8574048529 242.4333552954 283.2217204062)" id="JtEMHOJaDiU1LRcxgPVX0"  >
<path style="stroke: rgb(0,0,0); stroke-width: 1; stroke-dasharray: none; stroke-linecap: butt; stroke-dashoffset: 0; stroke-linejoin: miter; stroke-miterlimit: 4; fill: rgb(255,255,255); fill-opacity: 0; fill-rule: nonzero; opacity: 0.9;"  transform=" translate(0, 0)" d="M 0 -63.63416 L 0 63.63416" stroke-linecap="round" />
</g>
<g transform="matrix(2.8798566685 0 0 2.8798566685 444.3593594781 247.4158812811)" id="cRkWrMRWdvPryUljlhta9"  >
<path style="stroke: rgb(0,0,0); stroke-width: 1; stroke-dasharray: none; stroke-linecap: butt; stroke-dashoffset: 0; stroke-linejoin: miter; stroke-miterlimit: 4; fill: rgb(255,255,255); fill-opacity: 0; fill-rule: nonzero; opacity: 0.9;"  transform=" translate(0, 0)" d="M -6.48253 -12.4332 L -6.48253 12.4332 L 6.48252 12.4332 L 6.48252 -12.4332 z" stroke-linecap="round" />
</g>
<g transform="matrix(2.7836372597 0 0 2.8798566685 443.639395311 247.4158812811)" id="JvuWQUtQRlaua504nQIPF"  >
<path style="stroke: rgb(0,0,0); stroke-width: 1; stroke-dasharray: none; stroke-linecap: butt; stroke-dashoffset: 0; stroke-linejoin: miter; stroke-miterlimit: 4; fill: rgb(255,255,255); fill-opacity: 0; fill-rule: nonzero; opacity: 0.9;"  transform=" translate(0, 0)" d="M -6.98253 0 L 6.98252 0" stroke-linecap="round" />
</g>
<g transform="matrix(0.2449433396 0 0 -0.2293459698 444.3593594781 265.632922752)" id="65tVj4xnPDHNWOB2cTBIz"  >
<path style="stroke: rgb(0,0,0); stroke-width: 10; stroke-dasharray: none; stroke-linecap: butt; stroke-dashoffset: 0; stroke-linejoin: miter; stroke-miterlimit: 4; fill: none; fill-rule: nonzero; opacity: 0.9;"  transform=" translate(-40, -40)" d="M 60 40 L 80 80 L 40 80 L 0 80 L 20 40 L 40 0 L 60 40 z" stroke-linecap="round" />
</g>
<g transform="matrix(0.2449433397 0 0 0.2293459698 444.3593594835 230.0105243268)" id="xArOsg5DCwGmHsPc-Mrtj"  >
<path style="stroke: rgb(0,0,0); stroke-width: 10; stroke-dasharray: none; stroke-linecap: butt; stroke-dashoffset: 0; stroke-linejoin: miter; stroke-miterlimit: 4; fill: none; fill-rule: nonzero; opacity: 0.9;"  transform=" translate(-40, -40)" d="M 60 40 L 80 80 L 40 80 L 0 80 L 20 40 L 40 0 L 60 40 z" stroke-linecap="round" />
</g>
<g transform="matrix(2.8798566685 0 0 2.8798566685 243.8732836296 465.0390523498)" id="4t48qR53b5Ux_g5YOMFCf"  >
<path style="stroke: rgb(0,0,0); stroke-width: 1; stroke-dasharray: none; stroke-linecap: butt; stroke-dashoffset: 0; stroke-linejoin: miter; stroke-miterlimit: 4; fill: rgb(255,255,255); fill-opacity: 0; fill-rule: nonzero; opacity: 0.9;"  transform=" translate(0, 0)" d="M -73.24887 0 L 73.24888 0" stroke-linecap="round" />
</g>
<g transform="matrix(0.4048070526 0 0 0.4048070526 342.2688288463 73.5778151607)" id="w6PxFijstUfcqjMD_V7qB"  >
<path style="stroke: rgb(0,0,0); stroke-width: 10; stroke-dasharray: none; stroke-linecap: butt; stroke-dashoffset: 0; stroke-linejoin: miter; stroke-miterlimit: 4; fill: none; fill-rule: nonzero; opacity: 0.9;"  transform=" translate(0, 0)" d="M 0 -28.18489 C 15.55806 -28.18489 28.18489 -15.55806 28.18489 0 C 28.18489 15.55806 15.55806 28.18489 0 28.18489 C -15.55806 28.18489 -28.18489 15.55806 -28.18489 0 C -28.18489 -15.55806 -15.55806 -28.18489 0 -28.18489 z" stroke-linecap="round" />
</g>
<g transform="matrix(0.4048070526 0 0 0.4048070526 143.4537031499 73.5778151607)" id="9o9X6d-rorK9L7EB8bHAo"  >
<path style="stroke: rgb(0,0,0); stroke-width: 10; stroke-dasharray: none; stroke-linecap: butt; stroke-dashoffset: 0; stroke-linejoin: miter; stroke-miterlimit: 4; fill: none; fill-rule: nonzero; opacity: 0.9;"  transform=" translate(0, 0)" d="M 0 -28.18489 C 15.55806 -28.18489 28.18489 -15.55806 28.18489 0 C 28.18489 15.55806 15.55806 28.18489 0 28.18489 C -15.55806 28.18489 -28.18489 15.55806 -28.18489 0 C -28.18489 -15.55806 -15.55806 -28.18489 0 -28.18489 z" stroke-linecap="round" />
</g>
<g transform="matrix(0.4048070526 0 0 0.4048070526 193.0343109001 73.5778151607)" id="lvWcHgMKiSDF_OJV746I-"  >
<path style="stroke: rgb(0,0,0); stroke-width: 10; stroke-dasharray: none; stroke-linecap: butt; stroke-dashoffset: 0; stroke-linejoin: miter; stroke-miterlimit: 4; fill: none; fill-rule: nonzero; opacity: 0.9;"  transform=" translate(0, 0)" d="M 0 -28.18489 C 15.55806 -28.18489 28.18489 -15.55806 28.18489 0 C 28.18489 15.55806 15.55806 28.18489 0 28.18489 C -15.55806 28.18489 -28.18489 15.55806 -28.18489 0 C -28.18489 -15.55806 -15.55806 -28.18489 0 -28.18489 z" stroke-linecap="round" />
</g>
<g transform="matrix(0.4048070526 0 0 0.4048070526 243.8732836296 73.5778151607)" id="2DParaJkVTYVc9z9oYxMe"  >
<path style="stroke: rgb(0,0,0); stroke-width: 10; stroke-dasharray: none; stroke-linecap: butt; stroke-dashoffset: 0; stroke-linejoin: miter; stroke-miterlimit: 4; fill: none; fill-rule: nonzero; opacity: 0.9;"  transform=" translate(0, 0)" d="M 0 -28.18489 C 15.55806 -28.18489 28.18489 -15.55806 28.18489 0 C 28.18489 15.55806 15.55806 28.18489 0 28.18489 C -15.55806 28.18489 -28.18489 15.55806 -28.18489 0 C -28.18489 -15.55806 -15.55806 -28.18489 0 -28.18489 z" stroke-linecap="round" />
</g>
<g transform="matrix(0.4048070526 0 0 0.4048070526 294.1977237211 73.5778151607)" id="6-_il8VLtC4Nqd7aE9-OJ"  >
<path style="stroke: rgb(0,0,0); stroke-width: 10; stroke-dasharray: none; stroke-linecap: butt; stroke-dashoffset: 0; stroke-linejoin: miter; stroke-miterlimit: 4; fill: none; fill-rule: nonzero; opacity: 0.9;"  transform=" translate(0, 0)" d="M 0 -28.18489 C 15.55806 -28.18489 28.18489 -15.55806 28.18489 0 C 28.18489 15.55806 15.55806 28.18489 0 28.18489 C -15.55806 28.18489 -28.18489 15.55806 -28.18489 0 C -28.18489 -15.55806 -15.55806 -28.18489 0 -28.18489 z" stroke-linecap="round" />
</g>
</svg>